<svg xmlns="http://www.w3.org/2000/svg" width="337.881" height="335.365" viewBox="0 0 337.881 335.365">
  <g id="Group_211" data-name="Group 211" transform="translate(-12503.457 13384)">
    <g id="g76" transform="translate(12094.377 -13669.691)">
      <g id="g132" transform="translate(-34.398 3.44)">
        <path id="path142" d="M640.979,617.035a86.867,86.867,0,0,1-10.5-2.039c-1.925-.594-11.825-1.421-22-1.839-16.025-.657-19.593-1.114-26.665-3.414-10.706-3.482-17.187-7.924-20.134-13.8-4.4-8.783-.312-13.482,13.175-15.129,7.142-.872,9.092-.733,16.124,1.152,26.586,7.125,44.247,10.457,57.5,10.85,10.062.3,12.938-.021,23-2.549,6.325-1.59,11.692-2.718,11.927-2.507,1.28,1.148-6.589,7.1-14.427,10.918-9.777,4.759-8.564,6.274,1.658,2.07,30.037-12.355,50.245-37.773,57.942-72.881,2.575-11.745,3.435-27.443,2-36.584s-7.324-27.48-10.342-32.191c-3.051-4.763-23.445-24.3-27.541-26.383-3.018-1.535-9.006-3.435-27.72-8.792-7.859-2.25-19.141-2.039-34,.637-10.579,1.9-12.728,2.731-28.029,10.773-10.981,5.772-14.325,8.124-21.275,14.963-4.536,4.463-8.563,7.8-8.949,7.413-.96-.96,4.547-11.184,8.366-15.534a40.964,40.964,0,0,0,4.761-6.769,80.425,80.425,0,0,1,4.184-6.96c1.654-2.437,2.433-4.8,2.239-6.778-.285-2.915-.483-3.035-4.8-2.908-2.475.073-7.294.471-10.71.885-6.051.734-6.241.686-7.409-1.879-.926-2.032-.93-3.53-.021-6.566,1.48-4.941,5.643-7.655,14.624-9.534,7.571-1.584,9.516-2.829,9.516-6.089,0-4.219-4.349-6.45-12.571-6.45-6.143,0-9.189.694-19.2,4.374-6.542,2.406-12.963,4.947-14.271,5.646-3.794,2.03-16.715,11.8-18.152,13.724-2.166,2.9-10.5,9.226-14.175,10.763-4.357,1.821-11.376,3.418-12.051,2.743-.283-.283.775-1.718,2.351-3.19,5.106-4.77,6.8-16.327,2.955-20.171-1.739-1.739-2.831-1.995-6.208-1.455-10.192,1.63-14.951,5.641-18.1,15.259-2.124,6.48-4.959,10.15-9.215,11.928-4.3,1.795-12.455,1.767-14.923-.051-1.88-1.385-1.835-1.54,1.417-4.909,2.984-3.091,3.309-3.962,2.92-7.82a27.513,27.513,0,0,0-1.272-6.239c-.744-1.694-.521-1.821,2.08-1.179,7.292,1.8,9.5,1.807,11.458.036,2.39-2.163,2.562-7.766.561-18.259-.766-4.015-1.152-8.218-.859-9.34.621-2.376.806-2.346,13.753,2.265,7.407,2.638,10.5,3.209,17.5,3.224,11.563.026,17.063-2.368,20.179-8.78,2.657-5.468,5.128-6.569,8.221-3.664,4.471,4.2,7.359,2.984,17.512-7.368,5.1-5.2,9.089-10.042,8.857-10.75-.885-2.69-8.687-1.967-22.076,2.046-23.225,6.961-33.724,7.685-34.506,2.379-.243-1.65.54-2.488,3.465-3.71,2.079-.868,4.126-2.124,4.549-2.79,2.713-4.269-1.274-10.243-13.18-19.75-5.6-4.476-9.019-7.914-9.019-9.082,0-2.879,2.1-2.318,12.2,3.259,21.686,11.979,23.907,12.977,28.184,12.662,3.4-.25,4.238-.749,5.015-2.972,1.306-3.736-1.434-10.449-7.577-18.565-5.625-7.431-6.035-10.567-1.45-11.091,3.856-.441,13.9,4.628,19.884,10.033a49.84,49.84,0,0,1,8.533,11.3l3.779,7,8.467-.312c14.5-.535,34.7,6.463,45.358,15.707,8.084,7.015,9.161,7.534,12.635,6.095,3.938-1.631,7.974-6.5,7.974-9.611a8.686,8.686,0,0,0-2.525-4.994c-2.585-2.585-20.961-11.695-32.313-16.019-12.637-4.814-16.414-7.492-17.671-12.529-1.077-4.318,2.254-6.837,9.041-6.837,7.44,0,11.59,1.928,19.745,9.176,7.848,6.975,11.734,8.609,22.541,9.479,4.225.34,8.274,1.087,9,1.659a57.276,57.276,0,0,1,5.645,7.732c5.312,8.211,9.936,11.953,14.772,11.953,8.039,0,10.8-7.582,6.714-18.441C666.462,321.8,660,315.4,650.393,310.827c-9.261-4.406-14.38-5.4-34.327-6.678-17.275-1.106-22.825-2.686-23.392-6.663-.375-2.629,3.593-5.962,8.752-7.351,7.24-1.95,22.2-2.947,29.779-1.986,8.7,1.1,12.477,3.057,14.963,7.746,2.108,3.977,7.2,6.828,21.243,11.9,15.061,5.437,23.375,11.09,27.127,18.444,2.887,5.659,2.466,10.571-1.648,19.235-4.061,8.551-4.006,11.6.3,16.717,3.228,3.837,9.655,7.142,13.108,6.741,3.935-.456,5.178-4.1,6.869-20.149,1.881-17.845,2.046-18.66,3.772-18.66,2.331,0,2.888,1.879,4.619,15.565.909,7.186,2.4,14.611,3.306,16.5s7.5,10.41,14.649,18.935c12.569,14.992,13.306,16.133,22.456,34.807,13.9,28.366,18.307,43.727,19.207,66.934.708,18.274-.537,28.957-5.322,45.648-6.478,22.6-14.794,36.931-30.81,53.1-18.435,18.61-39.493,29.72-64.327,33.94-11.519,1.957-30.993,2.686-39.737,1.487Zm-18.3-33.417c-8.3-2.323-19.593-7.3-25.917-11.433-6.8-4.439-17.505-15.437-22.089-22.69-12.823-20.289-14.161-50.817-3.173-72.422a79.472,79.472,0,0,1,38.4-36.542c12.759-5.841,36.41-8.1,51.515-4.925a76.27,76.27,0,0,1,48.9,33.863c8.026,12.838,10.308,20.418,10.919,36.285.643,16.669-1.009,24.687-7.972,38.7-4.258,8.568-6.338,11.426-13.223,18.168a82.817,82.817,0,0,1-32.052,19.556c-9.188,2.925-36.855,3.805-45.3,1.441Zm36.083-39.846c13.414-6.563,21.5-23.63,18.84-39.752-2.144-12.985-9.007-22.75-19.685-28.006-5.7-2.805-7.473-3.19-14.708-3.186-15.4.008-25.555,6.373-32.054,20.091-2.93,6.184-3.169,7.471-3.109,16.7.112,17.109,5.875,27.054,19.728,34.038,6.974,3.516,7.5,3.621,16.263,3.26,7.383-.3,10.1-.886,14.724-3.147ZM462.479,373c-10.524-1.734-19-8.238-19-14.579,0-7.6,8.947-13.341,21.946-14.093,9.649-.559,15.877,1.157,26.178,7.211,11.04,6.488,11.245,8.976,1.181,14.331-12.939,6.885-20.7,8.712-30.305,7.129Zm-7.622-53.318c-9.767-4.251-7.558-15.563,3.039-15.563,9.178,0,23.057,7.668,22.387,12.367-.244,1.708-1.4,2.362-5.8,3.286-7.53,1.579-15.874,1.541-19.622-.091Zm248.863-4.108c-14.359-7.026-18.658-14.192-12.318-20.532,3.253-3.253,5.549-3.588,10.477-1.529,5.713,2.387,12.6,13.557,12.92,20.954.239,5.527-1.658,5.716-11.079,1.107Zm18.009-2.117c-3.387-1.367.691-13.651,7.69-23.164,7.118-9.675,21.058-10.879,25.543-2.206,4.854,9.387-1.467,16.776-19.816,23.163C727.2,314.018,724.3,314.5,721.729,313.459Z" fill="#c1e1f7"/>
        <path id="path140" d="M639.5,616.506c-15.072-2.848-28.028-5.866-30.362-7.073-4.653-2.406-1.884-3.418,6.41-2.342,11.1,1.44,33.7,1.236,42.114-.381,27.376-5.259,52.775-27.268,64.8-56.15a166.99,166.99,0,0,0,5.732-17.575c2.449-9.3,2.734-12.12,2.769-27.365.042-18.548-1.1-24.852-7.535-41.534-5.872-15.228-18.8-30.34-31.112-36.38q-37.908-18.591-86.1,4.057c-19.758,9.3-23.824,9.011-14.629-1.049,6.714-7.347,21.337-17.021,37.186-24.6,6.953-3.326,12.937-6.524,13.3-7.106.458-.741-5.826-.841-20.936-.332-19.741.664-21.646.582-22.238-.961-.9-2.347,1.776-4.155,10.1-6.822,5.98-1.916,9.223-2.244,22.25-2.256,11.539-.01,15.25-.318,15.25-1.266,0-1.526-11.144-9.863-15.762-11.793-6.53-2.728-18.786-4.7-29.238-4.695-13.835,0-26.483,2.316-42.847,7.839-12.841,4.334-16.153,4.811-16.153,2.328,0-.625,4.5-5.767,10-11.427,10.293-10.593,11.774-13.48,7.962-15.52-2.718-1.455-8.891-.449-22.058,3.593-13.756,4.223-21.192,5.652-27.326,5.25-6.188-.406-6.96-2.286-1.79-4.355,9.013-3.606,7.071-11.261-5.5-21.7-4.157-3.45-8.734-7.27-10.172-8.49-4.377-3.716-.245-2.711,8.463,2.058l15.8,8.657c12.344,6.764,19.62,5.966,19.62-2.152,0-4.521-3.09-11.027-8.916-18.775-2.246-2.987-4.084-5.762-4.084-6.167,0-2.754,8.744-.559,15.792,3.964,6.551,4.2,9.472,7.482,13.929,15.633l3.827,7,10.476.113a71.669,71.669,0,0,1,45.309,16.78c3.845,3.155,7.825,5.607,9.1,5.607,3.325,0,8.781-4.036,10.994-8.133,1.906-3.529,1.906-3.611-.016-6.969-1.543-2.7-4.314-4.581-13.429-9.134-6.316-3.155-16.143-7.61-21.838-9.9-12.208-4.912-16.147-7.819-16.147-11.917,0-3.529,2.327-4.946,8.119-4.946,5.625,0,11.044,2.775,18.57,9.512,7.711,6.9,11.653,8.571,21.793,9.231,4.41.287,8.61.992,9.334,1.567a57.636,57.636,0,0,1,5.645,7.737c7.03,10.867,14.017,14.826,20.37,11.54,4.105-2.123,5.168-4.357,5.168-10.862,0-7-4.506-16.289-10.318-21.271-9.24-7.921-24.894-13.37-38.682-13.464-11.633-.08-25.014-1.769-27.641-3.49-2.291-1.5-2.385-1.832-1.088-3.822,2.719-4.17,10.751-6,26.729-6.094,16.917-.1,20.9,1.121,23.809,7.285,1.917,4.064,7.031,6.9,21.854,12.128,14.468,5.1,23.139,11.158,26.472,18.494,2.575,5.668,2.333,8.088-1.635,16.368-1.925,4.017-3.5,8.729-3.5,10.472.008,7.063,7.852,14.66,15.938,15.437,4.281.411,5.039.186,6.381-1.9,1.95-3.03,3.39-11.036,4.261-23.678.666-9.673,1.581-13.358,2.972-11.967.366.366,1.327,6.419,2.137,13.452s2.045,14.146,2.744,15.806,6.4,9.32,12.673,17.02,12.8,15.8,14.5,18c4.608,5.948,18.875,36.216,22.8,48.379,5.808,17.983,7.042,25.714,7.042,44.121,0,18.078-1.221,25.974-6.647,42.976-4.079,12.782-7.629,20.415-14.081,30.275-16.9,25.835-43.945,44.268-75.227,51.277-6.845,1.534-38.14,2.87-43.5,1.857Zm-13.925-32.473A84.9,84.9,0,0,1,604,576.345c-18.96-9.466-31.716-25.315-37.552-46.657-3.112-11.382-2.49-30.584,1.354-41.762a75.949,75.949,0,0,1,28.52-37.706c13.151-8.89,24.923-12.7,42.678-13.793,34.844-2.154,66.419,18.774,77.23,51.191,2.411,7.228,2.67,9.448,2.691,23,.021,13.849-.191,15.614-2.757,23-9.094,26.174-31.165,45.365-57.6,50.08-8.39,1.5-26.145,1.676-32.992.332Zm28.772-36.487c6.262-1.855,11.747-6.013,16.273-12.333,14.288-19.953,8.083-48.975-12.653-59.184-18.414-9.065-39.516-1.742-48.693,16.9-3.107,6.311-3.273,7.214-3.246,17.672.035,13.664,2.234,20.091,9.387,27.434,10.434,10.712,23.834,13.986,38.932,9.512ZM459.215,372.088c-9.15-2.3-14.717-7.192-14.717-12.939,0-7.181,9.5-12.378,22.695-12.409,7.757-.018,8.694.228,17.54,4.62,5.14,2.552,10.185,5.567,11.21,6.7,1.743,1.926,1.756,2.181.2,3.9-.915,1.011-5.735,3.773-10.71,6.137-9.774,4.645-18.392,5.957-26.219,3.992ZM454.5,319.48c-6.877-2.845-6.6-11.168.436-12.933,4.277-1.073,13.735,2.316,20.407,7.313,2.937,2.2,3.165,2.682,1.877,3.969-1.547,1.547-19.77,2.871-22.72,1.651Zm247.948-4.823c-9.233-4.742-12.948-8.437-12.948-12.881,0-7,7.417-8.862,13.622-3.415,3.876,3.4,9.376,13.673,9.378,17.509C712.5,318.967,710.329,318.706,702.445,314.657Zm19.052-4.4c0-3,5.681-15.063,8.853-18.806,8.337-9.836,23.147-7.63,23.147,3.449,0,4.806-2.7,8.024-9.719,11.581-6.391,3.239-16.511,6.642-19.75,6.642-2.12,0-2.532-.466-2.532-2.866Z" fill="#086bae"/>
      </g>
    </g>
  </g>
</svg>
